<svg xmlns="http://www.w3.org/2000/svg" width="1200" height="560" viewBox="0 0 1200 560" role="img" aria-labelledby="title desc">
<title id="title">Doan Ngoc Trong — Mobile. Web. Made to matter.</title><desc id="desc">Custom animated profile artwork. Motion is disabled when reduced motion is preferred.</desc>
<defs>
<pattern id="grid" width="40" height="40" patternUnits="userSpaceOnUse"><path d="M40 0H0V40" fill="none" stroke="#302644" stroke-width=".6" /></pattern>
<radialGradient id="halo"><stop stop-color="#c4b5fd" stop-opacity=".13" /><stop offset="1" stop-color="#c4b5fd" stop-opacity="0" /></radialGradient>
<linearGradient id="line"><stop stop-color="#c4b5fd" /><stop offset="1" stop-color="#89ddff" /></linearGradient>
<radialGradient id="violetGlow"><stop stop-color="#a78bfa" stop-opacity=".5" /><stop offset="1" stop-color="#a78bfa" stop-opacity="0" /></radialGradient>
<radialGradient id="pinkGlow"><stop stop-color="#f0abfc" stop-opacity=".4" /><stop offset="1" stop-color="#f0abfc" stop-opacity="0" /></radialGradient>
<linearGradient id="candy" x1="0" y1="0" x2="1" y2=".4"><stop stop-color="#c4b5fd" /><stop offset=".5" stop-color="#f0abfc" /><stop offset="1" stop-color="#89ddff" /></linearGradient>
<linearGradient id="comet"><stop stop-color="#f0abfc" stop-opacity="0" /><stop offset="1" stop-color="#ede9fe" /></linearGradient></defs>
<rect width="1200" height="560" rx="24" fill="#110e1b" /><g><ellipse class="aurora" cx="840.0" cy="156.8" rx="540.0" ry="280.0" fill="url(#violetGlow)" /><ellipse class="aurora aurora-two" cx="240.0" cy="459.2" rx="480.0" ry="252.0" fill="url(#pinkGlow)" /></g>
<rect x="660" y="1" width="539" height="558" fill="url(#grid)" />
<path d="M48 84H1152" stroke="#3b2f52" />
<text x="48" y="53" class="mono" font-size="16" fill="#c4b5fd" font-weight="bold">DNT<tspan fill="#f5f0ff">.</tspan></text>
<text x="105" y="52" class="mono" font-size="11" fill="#a99bbf" letter-spacing="2">ENGINEER / BUILDER</text>
<circle cx="934" cy="47" r="4" fill="#c4b5fd" class="pulse" /><text x="949" y="51" class="mono" font-size="11" fill="#d9cfec">HO CHI MINH CITY, VN</text>
<text x="48" y="137" class="mono" font-size="12" fill="#c4b5fd" letter-spacing="2">DOAN NGOC TRONG</text>
<text x="44" y="220" font-size="76" font-weight="800" fill="#f5f0ff" letter-spacing="-4">Mobile. Web.</text>
<text x="44" y="303" class="gradient-title" font-size="76" font-weight="800" fill="#c4b5fd" letter-spacing="-4">Made to matter.</text>
<text x="48" y="355" font-size="18" fill="#c7bddb">Product-minded engineering. Thoughtful interfaces.</text>
<text x="48" y="385" font-size="18" fill="#c7bddb">From the first interaction to the production release.</text>
<rect x="48" y="425" width="137" height="32" rx="16" fill="#261e3b" stroke="#604781" />
<text x="116" y="446" text-anchor="middle" class="mono" font-size="11" fill="#e5d9ff">REACT NATIVE</text>
<rect x="195" y="425" width="87" height="32" rx="16" fill="#261e3b" stroke="#604781" />
<text x="238" y="446" text-anchor="middle" class="mono" font-size="11" fill="#e5d9ff">REACT</text>
<rect x="292" y="425" width="124" height="32" rx="16" fill="#261e3b" stroke="#604781" />
<text x="354" y="446" text-anchor="middle" class="mono" font-size="11" fill="#e5d9ff">TYPESCRIPT</text>
<path d="M48 502H1152" stroke="#3b2f52" />
<text x="48" y="532" class="mono" font-size="10" fill="#a99bbf" letter-spacing="1">FINTECH / HEALTHCARE / EDTECH / INDIE</text>
<text x="1152" y="532" text-anchor="end" class="mono" font-size="10" fill="#c4b5fd" letter-spacing="1">CRAFT MEETS PRODUCTION ↗</text><circle cx="900" cy="283" r="270" fill="url(#halo)" />
<circle cx="900" cy="283" r="205" fill="none" stroke="#634885" />
<circle cx="900" cy="283" r="166" fill="none" stroke="#493661" stroke-dasharray="2 10" />
<g class="orbit"><circle cx="1105" cy="283" r="5" fill="#c4b5fd" /><circle cx="695" cy="283" r="3" fill="#89ddff" /></g>
<path class="flow" d="M726 385H1020V166H858" fill="none" stroke="#c4b5fd" stroke-opacity=".45" />
<g class="float-slow"><rect x="810" y="154" width="310" height="214" rx="13" fill="#211a32" stroke="#8061aa" />
<path d="M810 189H1120" stroke="#48365f" /><circle cx="829" cy="172" r="3" fill="#c4b5fd" /><circle cx="841" cy="172" r="3" fill="#8870a9" /><circle cx="853" cy="172" r="3" fill="#8870a9" />
<text x="1088" y="176" text-anchor="end" fill="#b5a0ce" font-size="10" class="mono">WEB / REACT</text>
<rect x="834" y="214" width="77" height="7" rx="3" fill="#8870a9" />
<rect x="834" y="232" width="120" height="15" rx="4" fill="#ede2ff" />
<path d="M834 320L864 294L887 305L918 264L944 279L967 258L992 274L1015 245L1043 257L1094 218" fill="none" stroke="#c4b5fd" stroke-width="3" class="trace" />
<path d="M834 337H1094" stroke="#48365f" />
<text x="1094" y="351" text-anchor="end" class="mono" font-size="9" fill="#b5a0ce">REALTIME INTERFACES</text></g>
<g class="float"><rect x="738" y="235" width="153" height="253" rx="25" fill="#110e1b" stroke="#ad8dd9" stroke-width="2" />
<rect x="747" y="244" width="135" height="235" rx="19" fill="#291e3d" />
<rect x="790" y="251" width="49" height="9" rx="5" fill="#100b19" />
<text x="760" y="294" fill="#c4b5fd" font-size="10" class="mono">MOBILE / RN</text>
<rect x="760" y="310" width="72" height="9" rx="3" fill="#ede2ff" />
<rect x="760" y="329" width="99" height="5" rx="2" fill="#a48bc2" />
<rect x="760" y="352" width="108" height="60" rx="9" fill="#402b5e" />
<path d="M772 396L788 382L803 386L819 369L834 378L855 363" fill="none" stroke="#c4b5fd" stroke-width="2" class="trace" />
<rect x="760" y="429" width="108" height="28" rx="8" fill="#c4b5fd" />
<path d="M805 443H823M817 437L823 443L817 449" fill="none" stroke="#26143d" stroke-width="2" />
</g>
<g transform="translate(954 405)"><rect width="154" height="42" rx="21" fill="#2e2043" stroke="#8060a4" />
<circle cx="21" cy="21" r="4" fill="#c4b5fd" class="pulse" /><text x="35" y="25" class="mono" font-size="10" fill="#e5d9ff">BUILT TO SHIP</text></g>
<path class="spark" style="animation-delay:-0.00s" d="M996 546h6M999 543v6" stroke="#c4b5fd" stroke-width="1.5" /><path class="spark" style="animation-delay:-0.37s" d="M317 525h6M320 522v6" stroke="#f0abfc" stroke-width="1.5" /><path class="spark" style="animation-delay:-0.74s" d="M1013 545h6M1016 542v6" stroke="#89ddff" stroke-width="1.5" /><path class="spark" style="animation-delay:-1.11s" d="M491 25h6M494 22v6" stroke="#c4b5fd" stroke-width="1.5" /><path class="spark" style="animation-delay:-1.48s" d="M926 530h6M929 527v6" stroke="#f0abfc" stroke-width="1.5" /><path class="spark" style="animation-delay:-1.85s" d="M455 9h6M458 6v6" stroke="#89ddff" stroke-width="1.5" /><path class="spark" style="animation-delay:-2.22s" d="M177 546h6M180 543v6" stroke="#c4b5fd" stroke-width="1.5" /><path class="spark" style="animation-delay:-2.59s" d="M853 10h6M856 7v6" stroke="#f0abfc" stroke-width="1.5" /><path class="spark" style="animation-delay:-2.96s" d="M1067 527h6M1070 524v6" stroke="#89ddff" stroke-width="1.5" /><path class="spark" style="animation-delay:-3.33s" d="M933 546h6M936 543v6" stroke="#c4b5fd" stroke-width="1.5" /><path class="spark" style="animation-delay:-3.70s" d="M301 25h6M304 22v6" stroke="#f0abfc" stroke-width="1.5" /><path class="spark" style="animation-delay:-4.07s" d="M130 25h6M133 22v6" stroke="#89ddff" stroke-width="1.5" /><path class="spark" style="animation-delay:-4.44s" d="M845 538h6M848 535v6" stroke="#c4b5fd" stroke-width="1.5" /><path class="spark" style="animation-delay:-4.81s" d="M1001 27h6M1004 24v6" stroke="#f0abfc" stroke-width="1.5" /><path class="spark" style="animation-delay:-5.18s" d="M194 546h6M197 543v6" stroke="#89ddff" stroke-width="1.5" /><path class="spark" style="animation-delay:-5.55s" d="M754 547h6M757 544v6" stroke="#c4b5fd" stroke-width="1.5" /><path class="spark" style="animation-delay:-5.92s" d="M659 11h6M662 8v6" stroke="#f0abfc" stroke-width="1.5" /><g transform="translate(1158 118) scale(0.8)"><g class="flower"><ellipse cy="-12" rx="7" ry="14" transform="rotate(0)" fill="url(#candy)" /><ellipse cy="-12" rx="7" ry="14" transform="rotate(60)" fill="url(#candy)" /><ellipse cy="-12" rx="7" ry="14" transform="rotate(120)" fill="url(#candy)" /><ellipse cy="-12" rx="7" ry="14" transform="rotate(180)" fill="url(#candy)" /><ellipse cy="-12" rx="7" ry="14" transform="rotate(240)" fill="url(#candy)" /><ellipse cy="-12" rx="7" ry="14" transform="rotate(300)" fill="url(#candy)" /><circle r="5" fill="#110e1b" /></g></g><g transform="translate(650 365) scale(0.5)"><g class="flower"><ellipse cy="-12" rx="7" ry="14" transform="rotate(0)" fill="url(#candy)" /><ellipse cy="-12" rx="7" ry="14" transform="rotate(60)" fill="url(#candy)" /><ellipse cy="-12" rx="7" ry="14" transform="rotate(120)" fill="url(#candy)" /><ellipse cy="-12" rx="7" ry="14" transform="rotate(180)" fill="url(#candy)" /><ellipse cy="-12" rx="7" ry="14" transform="rotate(240)" fill="url(#candy)" /><ellipse cy="-12" rx="7" ry="14" transform="rotate(300)" fill="url(#candy)" /><circle r="5" fill="#110e1b" /></g></g><path class="shoot" d="M1080 25l-85 52" stroke="url(#comet)" stroke-width="2" /><style>text{font-family:Arial,Helvetica,sans-serif}.mono{font-family:Menlo,Consolas,monospace}.gradient-title{fill:url(#candy)}.shoot{display:none}.flow{stroke-dasharray:10 18}.dots{stroke-dasharray:2 28}</style></svg>